<svg xmlns="http://www.w3.org/2000/svg" viewBox="0 0 75.77 62.48"><defs><style>.cls-1{fill:#e63d85;}.cls-2{fill:#ed90ac;}.cls-3{fill:#e93c8d;}.cls-4{fill:#eb91ad;}.cls-5{fill:#ce346a;}.cls-6{fill:#c83c79;}.cls-7{fill:#ea4087;}.cls-8{fill:#e86294;}.cls-9{fill:#e93f88;}.cls-10{fill:#cf264e;}.cls-11{fill:#e74188;}.cls-12{fill:#fcc90c;}.cls-13{fill:#d7dd0b;}.cls-14{fill:#e7bc01;}.cls-15{fill:#f7c50c;}.cls-16{fill:#f4a002;}.cls-17{fill:#d5df02;}.cls-18{fill:#f3ee0f;}.cls-19{fill:#efa803;}.cls-20{fill:#f4e914;}.cls-21{fill:#dec000;}.cls-22{fill:#028ecc;}.cls-23{fill:#2b7fb3;}.cls-24{fill:#048dcb;}.cls-25{fill:#73b4c2;}.cls-26{fill:#0f96ce;}.cls-27{fill:#0178c8;}.cls-28{fill:#92bf1d;}.cls-29{fill:#67be21;}.cls-30{fill:#bcd371;}.cls-31{fill:#6bba55;}.cls-32{fill:#96be2c;}.cls-33{fill:#b6d207;}.cls-34{fill:#0ba748;}.cls-35{fill:#94be25;}.cls-36{fill:#5faa43;}.cls-37{fill:#6cb855;}.cls-38{fill:#90b937;}.cls-39{fill:#b2d474;}.cls-40{fill:#93bc42;}.cls-41{fill:#821f7b;}.cls-42{fill:#a8659f;}.cls-43{fill:#911379;}.cls-44{fill:#ab5b99;}.cls-45{fill:#9c1186;}.cls-46{fill:#e88eac;}</style></defs><title>资源 6</title><g id="图层_2" data-name="图层 2"><g id="图层_2-2" data-name="图层 2"><polygon class="cls-1" points="11.5 6.63 16.57 10.63 4.84 16.33 11.5 6.63"/><polygon class="cls-2" points="16.57 10.63 20.46 3.04 11.5 6.63 16.57 10.63"/><polygon class="cls-3" points="20.46 3.04 25.72 5.55 27.61 0 20.46 3.04"/><polygon class="cls-4" points="27.61 0 36.75 7.44 25.72 5.55 27.61 0"/><polygon class="cls-5" points="20.46 3.04 25.72 5.55 16.57 10.63 20.46 3.04"/><polygon class="cls-2" points="16.57 10.63 4.84 16.33 11 25.01 16.57 10.63"/><polygon class="cls-6" points="16.57 10.63 23.57 15.77 11 25.01 16.57 10.63"/><polygon class="cls-7" points="23.57 15.77 27.44 22.42 11 25.01 23.57 15.77"/><polygon class="cls-8" points="25.72 5.55 16.57 10.63 23.57 15.77 25.72 5.55"/><polygon class="cls-9" points="25.72 5.55 23.57 15.77 36.75 7.44 25.72 5.55"/><polygon class="cls-10" points="36.75 7.44 23.57 15.77 27.44 22.42 36.75 7.44"/><polygon class="cls-4" points="36.75 7.44 27.44 22.42 39.24 15.51 36.75 7.44"/><polygon class="cls-11" points="39.24 15.51 27.44 22.42 38.8 25.01 39.24 15.51"/><polygon class="cls-12" points="27.61 0 43.54 0.11 36.75 7.44 27.61 0"/><polygon class="cls-13" points="43.54 0.11 36.75 7.44 54.64 2.97 43.54 0.11"/><polygon class="cls-14" points="54.64 2.97 36.75 7.44 73.5 16.52 54.64 2.97"/><polygon class="cls-15" points="36.75 7.44 39.24 15.51 73.5 16.52 36.75 7.44"/><polygon class="cls-16" points="39.24 15.51 50.35 30.42 38.8 25.01 39.24 15.51"/><polygon class="cls-17" points="39.24 15.51 73.5 16.52 75.77 26.82 39.24 15.51"/><polygon class="cls-18" points="39.24 15.51 50.35 30.42 75.77 26.82 39.24 15.51"/><polygon class="cls-19" points="50.35 30.42 75.77 26.82 68.81 37.13 50.35 30.42"/><polygon class="cls-20" points="75.77 26.82 68.81 37.13 73.5 34.47 75.77 26.82"/><polygon class="cls-21" points="50.35 30.42 68.81 37.13 55.13 37.63 50.35 30.42"/><polygon class="cls-22" points="4.84 16.33 11 25.01 0 25.48 4.84 16.33"/><polygon class="cls-23" points="11 25.01 1.09 35.45 0 25.48 11 25.01"/><polygon class="cls-24" points="11 25.01 1.09 35.45 15.04 37.19 11 25.01"/><polygon class="cls-25" points="1.09 35.45 15.04 37.19 7.93 39.54 1.09 35.45"/><polygon class="cls-26" points="1.09 35.45 7.93 39.54 10.67 50.02 5.5 45.2 1.09 35.45"/><polygon class="cls-27" points="7.93 39.54 15.04 37.19 10.67 50.02 7.93 39.54"/><polygon class="cls-27" points="7.93 39.54 5.5 45.2 1.09 35.45 7.93 39.54"/><polygon class="cls-28" points="11 25.01 27.44 22.42 15.04 37.19 11 25.01"/><polygon class="cls-29" points="27.44 22.42 15.04 37.19 25.61 36.58 27.44 22.42"/><polygon class="cls-30" points="27.44 22.42 25.61 36.58 38.8 25.01 27.44 22.42"/><polygon class="cls-31" points="38.8 25.01 25.61 36.58 41.6 35.6 38.8 25.01"/><polygon class="cls-32" points="38.8 25.01 41.6 35.6 50.35 30.42 38.8 25.01"/><polygon class="cls-33" points="50.35 30.42 41.6 35.6 55.13 37.63 50.35 30.42"/><polygon class="cls-34" points="41.6 35.6 36.7 45.08 55.13 37.63 41.6 35.6"/><polygon class="cls-35" points="55.13 37.63 36.7 45.08 49.29 45.65 55.13 37.63"/><polygon class="cls-36" points="15.04 37.19 10.67 50.02 23.57 42.31 15.04 37.19"/><polygon class="cls-37" points="15.04 37.19 23.57 42.31 25.61 36.58 15.04 37.19"/><polygon class="cls-38" points="25.61 36.58 23.57 42.31 31.37 43.33 25.61 36.58"/><polygon class="cls-39" points="25.61 36.58 31.37 43.33 41.6 35.6 25.61 36.58"/><polygon class="cls-40" points="41.6 35.6 31.37 43.33 32.6 48.88 41.6 35.6"/><polygon class="cls-37" points="41.6 35.6 32.6 48.88 36.7 45.08 41.6 35.6"/><polygon class="cls-41" points="23.57 42.31 10.67 50.02 15.04 54.26 23.57 42.31"/><polygon class="cls-42" points="23.57 42.31 31.37 43.33 15.04 54.26 23.57 42.31"/><polygon class="cls-43" points="31.37 43.33 32.6 48.88 15.04 54.26 31.37 43.33"/><polygon class="cls-44" points="32.6 48.88 15.04 54.26 23.2 55.42 32.6 48.88"/><polygon class="cls-45" points="32.6 48.88 23.2 55.42 28.31 62.48 32.6 48.88"/><polygon class="cls-46" points="23.2 55.42 28.31 62.48 22.02 62.16 23.2 55.42"/></g></g></svg>